<mxfile host="app.diagrams.net" modified="2020-08-02T11:23:28.694Z" agent="5.0 (Windows NT 10.0; Win64; x64) AppleWebKit/537.36 (KHTML, like Gecko) Chrome/84.0.4147.105 Safari/537.36" etag="qYbTBL196Ts39n33P3JQ" version="13.5.8" type="github">
  <diagram id="3CC6cZOWKc5HPjwIYp_i" name="Page-1">
    <mxGraphModel dx="5891" dy="1830" grid="0" gridSize="10" guides="1" tooltips="1" connect="1" arrows="1" fold="1" page="1" pageScale="1" pageWidth="2336" pageHeight="1654" background="none" math="0" shadow="0">
      <root>
        <mxCell id="0" />
        <mxCell id="1" parent="0" />
        <mxCell id="oxWnM6yqkFeoa61_ei15-1" value="" style="rounded=0;whiteSpace=wrap;html=1;strokeColor=none;fillColor=#9AC7BF;" vertex="1" parent="1">
          <mxGeometry x="-2336" width="2330" height="1650" as="geometry" />
        </mxCell>
        <mxCell id="9Z9RfsvURIoyUKrnc7gD-143" value="single page" style="rounded=0;whiteSpace=wrap;html=1;glass=0;fontSize=12;align=left;fillColor=#647687;strokeColor=#314354;fontColor=#ffffff;verticalAlign=top;fontStyle=1;" parent="1" vertex="1">
          <mxGeometry x="-1092" y="1117" width="420" height="350" as="geometry" />
        </mxCell>
        <mxCell id="9Z9RfsvURIoyUKrnc7gD-97" value="home page" style="rounded=0;whiteSpace=wrap;html=1;glass=0;fontSize=12;align=left;fillColor=#647687;strokeColor=#314354;fontColor=#ffffff;verticalAlign=top;fontStyle=1;" parent="1" vertex="1">
          <mxGeometry x="-1082" y="197" width="420" height="380" as="geometry" />
        </mxCell>
        <mxCell id="9Z9RfsvURIoyUKrnc7gD-37" value="template page" style="rounded=0;whiteSpace=wrap;html=1;align=left;verticalAlign=top;" parent="1" vertex="1">
          <mxGeometry x="-1927" y="127" width="180" height="190" as="geometry" />
        </mxCell>
        <mxCell id="9Z9RfsvURIoyUKrnc7gD-51" style="edgeStyle=none;rounded=0;orthogonalLoop=1;jettySize=auto;html=1;exitX=1;exitY=0.5;exitDx=0;exitDy=0;startArrow=oval;startFill=0;endArrow=block;endFill=0;fontSize=12;" parent="1" source="9Z9RfsvURIoyUKrnc7gD-38" target="9Z9RfsvURIoyUKrnc7gD-43" edge="1">
          <mxGeometry relative="1" as="geometry" />
        </mxCell>
        <mxCell id="9Z9RfsvURIoyUKrnc7gD-38" value="content-primary" style="rounded=0;whiteSpace=wrap;html=1;align=left;verticalAlign=top;fillColor=#ffe6cc;strokeColor=#d79b00;" parent="1" vertex="1">
          <mxGeometry x="-2117" y="167" width="120" height="40" as="geometry" />
        </mxCell>
        <mxCell id="9Z9RfsvURIoyUKrnc7gD-43" value="mount-point-primary" style="whiteSpace=wrap;html=1;rounded=0;align=left;verticalAlign=top;strokeColor=#d79b00;fillColor=#ffe6cc;" parent="1" vertex="1">
          <mxGeometry x="-1902" y="167" width="130" height="40" as="geometry" />
        </mxCell>
        <mxCell id="9Z9RfsvURIoyUKrnc7gD-45" value="mount-point-secondary" style="whiteSpace=wrap;html=1;rounded=0;align=left;verticalAlign=top;strokeColor=#82b366;fillColor=#d5e8d4;" parent="1" vertex="1">
          <mxGeometry x="-1902" y="227" width="130" height="50" as="geometry" />
        </mxCell>
        <mxCell id="9Z9RfsvURIoyUKrnc7gD-52" style="edgeStyle=none;rounded=0;orthogonalLoop=1;jettySize=auto;html=1;exitX=1;exitY=0.5;exitDx=0;exitDy=0;startArrow=oval;startFill=0;endArrow=block;endFill=0;fontSize=12;" parent="1" source="9Z9RfsvURIoyUKrnc7gD-46" target="9Z9RfsvURIoyUKrnc7gD-45" edge="1">
          <mxGeometry relative="1" as="geometry" />
        </mxCell>
        <mxCell id="9Z9RfsvURIoyUKrnc7gD-46" value="content-secondary" style="rounded=0;whiteSpace=wrap;html=1;align=left;verticalAlign=top;fillColor=#d5e8d4;strokeColor=#82b366;" parent="1" vertex="1">
          <mxGeometry x="-2142" y="247" width="150" height="40" as="geometry" />
        </mxCell>
        <mxCell id="9Z9RfsvURIoyUKrnc7gD-56" style="edgeStyle=none;rounded=0;orthogonalLoop=1;jettySize=auto;html=1;exitX=1;exitY=0.5;exitDx=0;exitDy=0;entryX=0;entryY=0;entryDx=0;entryDy=0;startArrow=oval;startFill=0;endArrow=block;endFill=0;fontSize=12;" parent="1" source="9Z9RfsvURIoyUKrnc7gD-53" target="9Z9RfsvURIoyUKrnc7gD-37" edge="1">
          <mxGeometry relative="1" as="geometry" />
        </mxCell>
        <mxCell id="9Z9RfsvURIoyUKrnc7gD-53" value="partials/site-head" style="rounded=0;whiteSpace=wrap;html=1;align=left;verticalAlign=top;" parent="1" vertex="1">
          <mxGeometry x="-2127" y="87" width="120" height="40" as="geometry" />
        </mxCell>
        <mxCell id="9Z9RfsvURIoyUKrnc7gD-55" style="edgeStyle=none;rounded=0;orthogonalLoop=1;jettySize=auto;html=1;exitX=1;exitY=0.5;exitDx=0;exitDy=0;entryX=0;entryY=1;entryDx=0;entryDy=0;startArrow=oval;startFill=0;endArrow=block;endFill=0;fontSize=12;" parent="1" source="9Z9RfsvURIoyUKrnc7gD-54" target="9Z9RfsvURIoyUKrnc7gD-37" edge="1">
          <mxGeometry relative="1" as="geometry" />
        </mxCell>
        <mxCell id="9Z9RfsvURIoyUKrnc7gD-54" value="partials/site-tail" style="rounded=0;whiteSpace=wrap;html=1;align=left;verticalAlign=top;" parent="1" vertex="1">
          <mxGeometry x="-2127" y="327" width="120" height="40" as="geometry" />
        </mxCell>
        <mxCell id="9Z9RfsvURIoyUKrnc7gD-68" value="template page" style="rounded=0;whiteSpace=wrap;html=1;align=left;verticalAlign=top;" parent="1" vertex="1">
          <mxGeometry x="-867" y="267" width="180" height="190" as="geometry" />
        </mxCell>
        <mxCell id="9Z9RfsvURIoyUKrnc7gD-69" style="edgeStyle=none;rounded=0;orthogonalLoop=1;jettySize=auto;html=1;exitX=1;exitY=0.5;exitDx=0;exitDy=0;startArrow=oval;startFill=0;endArrow=block;endFill=0;fontSize=12;" parent="1" source="9Z9RfsvURIoyUKrnc7gD-70" target="9Z9RfsvURIoyUKrnc7gD-71" edge="1">
          <mxGeometry relative="1" as="geometry" />
        </mxCell>
        <mxCell id="9Z9RfsvURIoyUKrnc7gD-70" value="content-primary&lt;br&gt;&lt;br&gt;- main menu&lt;br&gt;- background cover image&lt;br&gt;-&amp;nbsp;very latest post&lt;br&gt;- next 3 latest posts&lt;br&gt;- read more link" style="rounded=0;whiteSpace=wrap;html=1;align=left;verticalAlign=top;fillColor=#ffe6cc;strokeColor=#d79b00;" parent="1" vertex="1">
          <mxGeometry x="-1062" y="247" width="160" height="120" as="geometry" />
        </mxCell>
        <mxCell id="9Z9RfsvURIoyUKrnc7gD-71" value="mount-point-primary" style="whiteSpace=wrap;html=1;rounded=0;align=left;verticalAlign=top;strokeColor=#d79b00;fillColor=#ffe6cc;" parent="1" vertex="1">
          <mxGeometry x="-842" y="307" width="130" height="40" as="geometry" />
        </mxCell>
        <mxCell id="9Z9RfsvURIoyUKrnc7gD-72" value="mount-point-secondary" style="whiteSpace=wrap;html=1;rounded=0;align=left;verticalAlign=top;strokeColor=#82b366;fillColor=#d5e8d4;" parent="1" vertex="1">
          <mxGeometry x="-842" y="367" width="130" height="50" as="geometry" />
        </mxCell>
        <mxCell id="9Z9RfsvURIoyUKrnc7gD-73" style="edgeStyle=none;rounded=0;orthogonalLoop=1;jettySize=auto;html=1;exitX=1;exitY=0.5;exitDx=0;exitDy=0;startArrow=oval;startFill=0;endArrow=block;endFill=0;fontSize=12;" parent="1" source="9Z9RfsvURIoyUKrnc7gD-74" target="9Z9RfsvURIoyUKrnc7gD-72" edge="1">
          <mxGeometry relative="1" as="geometry" />
        </mxCell>
        <mxCell id="9Z9RfsvURIoyUKrnc7gD-74" value="content-secondary&lt;br&gt;&lt;br&gt;- tagline text&lt;br&gt;- latest 3 post (another content type)&lt;br&gt;- read more link" style="rounded=0;whiteSpace=wrap;html=1;align=left;verticalAlign=top;fillColor=#d5e8d4;strokeColor=#82b366;" parent="1" vertex="1">
          <mxGeometry x="-1057" y="377" width="150" height="110" as="geometry" />
        </mxCell>
        <mxCell id="9Z9RfsvURIoyUKrnc7gD-98" value="section page" style="rounded=0;whiteSpace=wrap;html=1;glass=0;fontSize=12;align=left;fillColor=#647687;strokeColor=#314354;fontColor=#ffffff;verticalAlign=top;fontStyle=1;" parent="1" vertex="1">
          <mxGeometry x="-1082" y="677" width="420" height="350" as="geometry" />
        </mxCell>
        <mxCell id="9Z9RfsvURIoyUKrnc7gD-99" value="template page" style="rounded=0;whiteSpace=wrap;html=1;align=left;verticalAlign=top;" parent="1" vertex="1">
          <mxGeometry x="-867" y="747" width="180" height="220" as="geometry" />
        </mxCell>
        <mxCell id="9Z9RfsvURIoyUKrnc7gD-100" style="edgeStyle=none;rounded=0;orthogonalLoop=1;jettySize=auto;html=1;exitX=1;exitY=0.5;exitDx=0;exitDy=0;startArrow=oval;startFill=0;endArrow=block;endFill=0;fontSize=12;" parent="1" source="9Z9RfsvURIoyUKrnc7gD-101" target="9Z9RfsvURIoyUKrnc7gD-102" edge="1">
          <mxGeometry relative="1" as="geometry" />
        </mxCell>
        <mxCell id="9Z9RfsvURIoyUKrnc7gD-101" value="content-primary&lt;br&gt;&lt;br&gt;- section cover image&lt;br&gt;- section description" style="rounded=0;whiteSpace=wrap;html=1;align=left;verticalAlign=top;fillColor=#ffe6cc;strokeColor=#d79b00;" parent="1" vertex="1">
          <mxGeometry x="-1062" y="727" width="160" height="80" as="geometry" />
        </mxCell>
        <mxCell id="9Z9RfsvURIoyUKrnc7gD-102" value="mount-point-primary" style="whiteSpace=wrap;html=1;rounded=0;align=left;verticalAlign=top;strokeColor=#d79b00;fillColor=#ffe6cc;" parent="1" vertex="1">
          <mxGeometry x="-842" y="787" width="130" height="40" as="geometry" />
        </mxCell>
        <mxCell id="9Z9RfsvURIoyUKrnc7gD-103" value="mount-point-secondary" style="whiteSpace=wrap;html=1;rounded=0;align=left;verticalAlign=top;strokeColor=#82b366;fillColor=#d5e8d4;" parent="1" vertex="1">
          <mxGeometry x="-842" y="847" width="130" height="50" as="geometry" />
        </mxCell>
        <mxCell id="9Z9RfsvURIoyUKrnc7gD-104" style="edgeStyle=none;rounded=0;orthogonalLoop=1;jettySize=auto;html=1;exitX=1;exitY=0.5;exitDx=0;exitDy=0;startArrow=oval;startFill=0;endArrow=block;endFill=0;fontSize=12;" parent="1" source="9Z9RfsvURIoyUKrnc7gD-105" target="9Z9RfsvURIoyUKrnc7gD-103" edge="1">
          <mxGeometry relative="1" as="geometry" />
        </mxCell>
        <mxCell id="9Z9RfsvURIoyUKrnc7gD-105" value="content-secondary&lt;br&gt;&lt;br&gt;- last 12 post (sub section?)&lt;br&gt;- pagination" style="rounded=0;whiteSpace=wrap;html=1;align=left;verticalAlign=top;fillColor=#d5e8d4;strokeColor=#82b366;" parent="1" vertex="1">
          <mxGeometry x="-1062" y="812" width="155" height="80" as="geometry" />
        </mxCell>
        <mxCell id="9Z9RfsvURIoyUKrnc7gD-107" value="" style="edgeStyle=entityRelationEdgeStyle;rounded=0;orthogonalLoop=1;jettySize=auto;html=1;startArrow=oval;startFill=0;endArrow=block;endFill=0;fontSize=12;" parent="1" source="9Z9RfsvURIoyUKrnc7gD-106" target="9Z9RfsvURIoyUKrnc7gD-70" edge="1">
          <mxGeometry relative="1" as="geometry" />
        </mxCell>
        <mxCell id="9Z9RfsvURIoyUKrnc7gD-106" value="partials/menu-primary&lt;br&gt;(site menu)" style="rounded=0;whiteSpace=wrap;html=1;align=left;verticalAlign=top;strokeColor=#FF0080;" parent="1" vertex="1">
          <mxGeometry x="-1394" y="193" width="140" height="40" as="geometry" />
        </mxCell>
        <mxCell id="9Z9RfsvURIoyUKrnc7gD-108" value="mount-point-tertiary" style="rounded=0;whiteSpace=wrap;html=1;glass=0;fontSize=12;align=left;fillColor=#e1d5e7;strokeColor=#9673a6;" parent="1" vertex="1">
          <mxGeometry x="-1902" y="287" width="130" height="20" as="geometry" />
        </mxCell>
        <mxCell id="9Z9RfsvURIoyUKrnc7gD-109" value="mount-point-tertiary" style="rounded=0;whiteSpace=wrap;html=1;glass=0;fontSize=12;align=left;fillColor=#e1d5e7;strokeColor=#9673a6;" parent="1" vertex="1">
          <mxGeometry x="-842" y="907" width="130" height="20" as="geometry" />
        </mxCell>
        <mxCell id="9Z9RfsvURIoyUKrnc7gD-111" style="edgeStyle=none;rounded=0;orthogonalLoop=1;jettySize=auto;html=1;exitX=1;exitY=0.5;exitDx=0;exitDy=0;entryX=0;entryY=0.75;entryDx=0;entryDy=0;startArrow=oval;startFill=0;endArrow=block;endFill=0;fontSize=12;" parent="1" source="9Z9RfsvURIoyUKrnc7gD-110" target="9Z9RfsvURIoyUKrnc7gD-109" edge="1">
          <mxGeometry relative="1" as="geometry" />
        </mxCell>
        <mxCell id="9Z9RfsvURIoyUKrnc7gD-110" value="content-tertiary&lt;br&gt;&lt;br&gt;- advertising&lt;br&gt;- random list from other type" style="rounded=0;whiteSpace=wrap;html=1;align=left;verticalAlign=top;fillColor=#e1d5e7;strokeColor=#9673a6;" parent="1" vertex="1">
          <mxGeometry x="-1062" y="907" width="165" height="80" as="geometry" />
        </mxCell>
        <mxCell id="9Z9RfsvURIoyUKrnc7gD-115" style="edgeStyle=entityRelationEdgeStyle;rounded=0;orthogonalLoop=1;jettySize=auto;html=1;exitX=1;exitY=0.5;exitDx=0;exitDy=0;entryX=0;entryY=0.5;entryDx=0;entryDy=0;startArrow=oval;startFill=0;endArrow=block;endFill=0;fontSize=12;" parent="1" source="9Z9RfsvURIoyUKrnc7gD-114" target="9Z9RfsvURIoyUKrnc7gD-70" edge="1">
          <mxGeometry relative="1" as="geometry" />
        </mxCell>
        <mxCell id="9Z9RfsvURIoyUKrnc7gD-114" value="partials/home-cover&lt;br&gt;&lt;br&gt;(code to get 4 latest post)" style="rounded=0;whiteSpace=wrap;html=1;align=left;verticalAlign=top;" parent="1" vertex="1">
          <mxGeometry x="-1362" y="302" width="160" height="70" as="geometry" />
        </mxCell>
        <mxCell id="9Z9RfsvURIoyUKrnc7gD-117" style="edgeStyle=entityRelationEdgeStyle;rounded=0;orthogonalLoop=1;jettySize=auto;html=1;exitX=1;exitY=0.5;exitDx=0;exitDy=0;entryX=0.013;entryY=0.427;entryDx=0;entryDy=0;entryPerimeter=0;startArrow=oval;startFill=0;endArrow=block;endFill=0;fontSize=12;" parent="1" source="9Z9RfsvURIoyUKrnc7gD-116" target="9Z9RfsvURIoyUKrnc7gD-74" edge="1">
          <mxGeometry relative="1" as="geometry" />
        </mxCell>
        <mxCell id="9Z9RfsvURIoyUKrnc7gD-116" value="partials/list-group-3&lt;br&gt;&lt;br&gt;(code to get 3 latest post)" style="rounded=0;whiteSpace=wrap;html=1;align=left;verticalAlign=top;" parent="1" vertex="1">
          <mxGeometry x="-1362" y="417" width="160" height="80" as="geometry" />
        </mxCell>
        <mxCell id="9Z9RfsvURIoyUKrnc7gD-120" style="edgeStyle=none;rounded=0;orthogonalLoop=1;jettySize=auto;html=1;exitX=1;exitY=0.5;exitDx=0;exitDy=0;startArrow=oval;startFill=0;endArrow=block;endFill=0;fontSize=12;" parent="1" source="9Z9RfsvURIoyUKrnc7gD-118" target="9Z9RfsvURIoyUKrnc7gD-119" edge="1">
          <mxGeometry relative="1" as="geometry" />
        </mxCell>
        <mxCell id="9Z9RfsvURIoyUKrnc7gD-118" value="content-tertiary&lt;br&gt;&lt;br&gt;- list 6 post (another type)" style="rounded=0;whiteSpace=wrap;html=1;align=left;verticalAlign=top;fillColor=#e1d5e7;strokeColor=#9673a6;" parent="1" vertex="1">
          <mxGeometry x="-1057" y="497" width="165" height="60" as="geometry" />
        </mxCell>
        <mxCell id="9Z9RfsvURIoyUKrnc7gD-119" value="mount-point-tertiary" style="rounded=0;whiteSpace=wrap;html=1;glass=0;fontSize=12;align=left;fillColor=#e1d5e7;strokeColor=#9673a6;" parent="1" vertex="1">
          <mxGeometry x="-842" y="427" width="130" height="20" as="geometry" />
        </mxCell>
        <mxCell id="9Z9RfsvURIoyUKrnc7gD-122" style="edgeStyle=entityRelationEdgeStyle;rounded=0;orthogonalLoop=1;jettySize=auto;html=1;exitX=1;exitY=0.5;exitDx=0;exitDy=0;startArrow=oval;startFill=0;endArrow=block;endFill=0;fontSize=12;" parent="1" source="9Z9RfsvURIoyUKrnc7gD-121" target="9Z9RfsvURIoyUKrnc7gD-118" edge="1">
          <mxGeometry relative="1" as="geometry" />
        </mxCell>
        <mxCell id="9Z9RfsvURIoyUKrnc7gD-121" value="partials/list-group-6&lt;br&gt;&lt;br&gt;(code to get 6 latest post)" style="rounded=0;whiteSpace=wrap;html=1;align=left;verticalAlign=top;" parent="1" vertex="1">
          <mxGeometry x="-1363.5" y="539" width="161.5" height="80" as="geometry" />
        </mxCell>
        <mxCell id="9Z9RfsvURIoyUKrnc7gD-125" style="edgeStyle=entityRelationEdgeStyle;rounded=0;orthogonalLoop=1;jettySize=auto;html=1;exitX=1;exitY=0.75;exitDx=0;exitDy=0;startArrow=oval;startFill=0;endArrow=block;endFill=0;fontSize=12;" parent="1" source="9Z9RfsvURIoyUKrnc7gD-124" target="9Z9RfsvURIoyUKrnc7gD-114" edge="1">
          <mxGeometry relative="1" as="geometry" />
        </mxCell>
        <mxCell id="9Z9RfsvURIoyUKrnc7gD-128" style="edgeStyle=entityRelationEdgeStyle;rounded=0;orthogonalLoop=1;jettySize=auto;html=1;exitX=1;exitY=0.75;exitDx=0;exitDy=0;entryX=0;entryY=0.5;entryDx=0;entryDy=0;startArrow=oval;startFill=0;endArrow=block;endFill=0;fontSize=12;" parent="1" source="9Z9RfsvURIoyUKrnc7gD-124" target="9Z9RfsvURIoyUKrnc7gD-127" edge="1">
          <mxGeometry relative="1" as="geometry" />
        </mxCell>
        <mxCell id="9Z9RfsvURIoyUKrnc7gD-154" style="edgeStyle=entityRelationEdgeStyle;rounded=0;orthogonalLoop=1;jettySize=auto;html=1;exitX=1;exitY=0.75;exitDx=0;exitDy=0;startArrow=oval;startFill=0;endArrow=block;endFill=0;fontSize=12;entryX=0;entryY=0.5;entryDx=0;entryDy=0;" parent="1" source="9Z9RfsvURIoyUKrnc7gD-124" target="9Z9RfsvURIoyUKrnc7gD-215" edge="1">
          <mxGeometry relative="1" as="geometry">
            <mxPoint x="-1252" y="1237" as="targetPoint" />
          </mxGeometry>
        </mxCell>
        <mxCell id="9Z9RfsvURIoyUKrnc7gD-124" value="&lt;h1&gt;cover-page&lt;/h1&gt;&lt;p&gt;code to get cover image from resources, link...&lt;/p&gt;&lt;p&gt;fallback to default iamge&lt;/p&gt;&lt;p&gt;get big size from config&lt;/p&gt;" style="text;html=1;strokeColor=none;fillColor=none;spacing=5;spacingTop=-20;whiteSpace=wrap;overflow=hidden;rounded=0;" parent="1" vertex="1">
          <mxGeometry x="-1973" y="593" width="190" height="160" as="geometry" />
        </mxCell>
        <mxCell id="9Z9RfsvURIoyUKrnc7gD-137" style="edgeStyle=entityRelationEdgeStyle;rounded=0;orthogonalLoop=1;jettySize=auto;html=1;exitX=1;exitY=0.5;exitDx=0;exitDy=0;startArrow=oval;startFill=0;endArrow=block;endFill=0;fontSize=12;" parent="1" source="9Z9RfsvURIoyUKrnc7gD-127" target="9Z9RfsvURIoyUKrnc7gD-101" edge="1">
          <mxGeometry relative="1" as="geometry" />
        </mxCell>
        <mxCell id="9Z9RfsvURIoyUKrnc7gD-127" value="partials/section-cover" style="rounded=0;whiteSpace=wrap;html=1;align=left;verticalAlign=top;" parent="1" vertex="1">
          <mxGeometry x="-1342" y="827" width="160" height="40" as="geometry" />
        </mxCell>
        <mxCell id="9Z9RfsvURIoyUKrnc7gD-133" style="edgeStyle=entityRelationEdgeStyle;rounded=0;orthogonalLoop=1;jettySize=auto;html=1;startArrow=oval;startFill=0;endArrow=block;endFill=0;fontSize=12;exitX=1;exitY=0.5;exitDx=0;exitDy=0;entryX=0;entryY=0.5;entryDx=0;entryDy=0;" parent="1" source="9Z9RfsvURIoyUKrnc7gD-129" target="9Z9RfsvURIoyUKrnc7gD-199" edge="1">
          <mxGeometry relative="1" as="geometry">
            <mxPoint x="-1622" y="627" as="sourcePoint" />
            <mxPoint x="-1582" y="702" as="targetPoint" />
          </mxGeometry>
        </mxCell>
        <mxCell id="9Z9RfsvURIoyUKrnc7gD-129" value="&lt;h1&gt;cover-post&lt;/h1&gt;&lt;p&gt;code to get cover image from resources, link, params...&lt;/p&gt;&lt;p&gt;fallback to default iamge&lt;/p&gt;&lt;p&gt;get small size from config&lt;/p&gt;" style="text;html=1;strokeColor=none;fillColor=none;spacing=5;spacingTop=-20;whiteSpace=wrap;overflow=hidden;rounded=0;" parent="1" vertex="1">
          <mxGeometry x="-2301" y="542" width="190" height="140" as="geometry" />
        </mxCell>
        <mxCell id="9Z9RfsvURIoyUKrnc7gD-131" style="edgeStyle=entityRelationEdgeStyle;rounded=0;orthogonalLoop=1;jettySize=auto;html=1;entryX=0;entryY=0.5;entryDx=0;entryDy=0;startArrow=oval;startFill=0;endArrow=block;endFill=0;fontSize=12;exitX=1;exitY=0.5;exitDx=0;exitDy=0;" parent="1" source="9Z9RfsvURIoyUKrnc7gD-197" target="9Z9RfsvURIoyUKrnc7gD-116" edge="1">
          <mxGeometry relative="1" as="geometry">
            <mxPoint x="-1528" y="554" as="sourcePoint" />
          </mxGeometry>
        </mxCell>
        <mxCell id="9Z9RfsvURIoyUKrnc7gD-132" style="edgeStyle=entityRelationEdgeStyle;rounded=0;orthogonalLoop=1;jettySize=auto;html=1;startArrow=oval;startFill=0;endArrow=block;endFill=0;fontSize=12;" parent="1" source="9Z9RfsvURIoyUKrnc7gD-197" target="9Z9RfsvURIoyUKrnc7gD-121" edge="1">
          <mxGeometry relative="1" as="geometry">
            <mxPoint x="-1505" y="512" as="sourcePoint" />
          </mxGeometry>
        </mxCell>
        <mxCell id="9Z9RfsvURIoyUKrnc7gD-136" style="edgeStyle=entityRelationEdgeStyle;rounded=0;orthogonalLoop=1;jettySize=auto;html=1;startArrow=oval;startFill=0;endArrow=block;endFill=0;fontSize=12;entryX=0;entryY=0.5;entryDx=0;entryDy=0;" parent="1" source="9Z9RfsvURIoyUKrnc7gD-197" target="9Z9RfsvURIoyUKrnc7gD-134" edge="1">
          <mxGeometry relative="1" as="geometry">
            <mxPoint x="-1462" y="724.5" as="sourcePoint" />
            <mxPoint x="-1362" y="947" as="targetPoint" />
          </mxGeometry>
        </mxCell>
        <mxCell id="9Z9RfsvURIoyUKrnc7gD-138" style="edgeStyle=entityRelationEdgeStyle;rounded=0;orthogonalLoop=1;jettySize=auto;html=1;exitX=1;exitY=0.5;exitDx=0;exitDy=0;startArrow=oval;startFill=0;endArrow=block;endFill=0;fontSize=12;" parent="1" source="9Z9RfsvURIoyUKrnc7gD-134" target="9Z9RfsvURIoyUKrnc7gD-105" edge="1">
          <mxGeometry relative="1" as="geometry" />
        </mxCell>
        <mxCell id="9Z9RfsvURIoyUKrnc7gD-134" value="partials/list-group-12&lt;br&gt;&lt;br&gt;(code to get 12 latest post)&lt;br&gt;subsection?&lt;br&gt;" style="rounded=0;whiteSpace=wrap;html=1;align=left;verticalAlign=top;" parent="1" vertex="1">
          <mxGeometry x="-1349" y="924" width="150" height="80" as="geometry" />
        </mxCell>
        <mxCell id="9Z9RfsvURIoyUKrnc7gD-142" style="edgeStyle=entityRelationEdgeStyle;rounded=0;orthogonalLoop=1;jettySize=auto;html=1;exitX=1;exitY=0.5;exitDx=0;exitDy=0;entryX=0;entryY=0.5;entryDx=0;entryDy=0;startArrow=oval;startFill=0;endArrow=block;endFill=0;fontSize=12;" parent="1" source="9Z9RfsvURIoyUKrnc7gD-140" target="9Z9RfsvURIoyUKrnc7gD-101" edge="1">
          <mxGeometry relative="1" as="geometry" />
        </mxCell>
        <mxCell id="9Z9RfsvURIoyUKrnc7gD-140" value="partials/menu-secondary&lt;br&gt;(section menu)" style="rounded=0;whiteSpace=wrap;html=1;align=left;verticalAlign=top;strokeColor=#FF0080;" parent="1" vertex="1">
          <mxGeometry x="-1362" y="707" width="140" height="40" as="geometry" />
        </mxCell>
        <mxCell id="9Z9RfsvURIoyUKrnc7gD-144" value="template page" style="rounded=0;whiteSpace=wrap;html=1;align=left;verticalAlign=top;" parent="1" vertex="1">
          <mxGeometry x="-877" y="1187" width="180" height="220" as="geometry" />
        </mxCell>
        <mxCell id="9Z9RfsvURIoyUKrnc7gD-145" style="edgeStyle=none;rounded=0;orthogonalLoop=1;jettySize=auto;html=1;exitX=1;exitY=0.5;exitDx=0;exitDy=0;startArrow=oval;startFill=0;endArrow=block;endFill=0;fontSize=12;" parent="1" source="9Z9RfsvURIoyUKrnc7gD-146" target="9Z9RfsvURIoyUKrnc7gD-147" edge="1">
          <mxGeometry relative="1" as="geometry" />
        </mxCell>
        <mxCell id="9Z9RfsvURIoyUKrnc7gD-146" value="content-primary&lt;br&gt;&lt;br&gt;- single cover image&lt;br&gt;- title&lt;br&gt;- summary" style="rounded=0;whiteSpace=wrap;html=1;align=left;verticalAlign=top;fillColor=#ffe6cc;strokeColor=#d79b00;" parent="1" vertex="1">
          <mxGeometry x="-1074.5" y="1157" width="160" height="80" as="geometry" />
        </mxCell>
        <mxCell id="9Z9RfsvURIoyUKrnc7gD-147" value="mount-point-primary" style="whiteSpace=wrap;html=1;rounded=0;align=left;verticalAlign=top;strokeColor=#d79b00;fillColor=#ffe6cc;" parent="1" vertex="1">
          <mxGeometry x="-852" y="1227" width="130" height="40" as="geometry" />
        </mxCell>
        <mxCell id="9Z9RfsvURIoyUKrnc7gD-148" value="mount-point-secondary" style="whiteSpace=wrap;html=1;rounded=0;align=left;verticalAlign=top;strokeColor=#82b366;fillColor=#d5e8d4;" parent="1" vertex="1">
          <mxGeometry x="-852" y="1287" width="130" height="50" as="geometry" />
        </mxCell>
        <mxCell id="9Z9RfsvURIoyUKrnc7gD-149" style="edgeStyle=none;rounded=0;orthogonalLoop=1;jettySize=auto;html=1;exitX=1;exitY=0.5;exitDx=0;exitDy=0;startArrow=oval;startFill=0;endArrow=block;endFill=0;fontSize=12;" parent="1" source="9Z9RfsvURIoyUKrnc7gD-150" target="9Z9RfsvURIoyUKrnc7gD-148" edge="1">
          <mxGeometry relative="1" as="geometry" />
        </mxCell>
        <mxCell id="9Z9RfsvURIoyUKrnc7gD-150" value="content-secondary&lt;br&gt;&lt;br&gt;- post content" style="rounded=0;whiteSpace=wrap;html=1;align=left;verticalAlign=top;fillColor=#d5e8d4;strokeColor=#82b366;" parent="1" vertex="1">
          <mxGeometry x="-1069.5" y="1257" width="155" height="80" as="geometry" />
        </mxCell>
        <mxCell id="9Z9RfsvURIoyUKrnc7gD-151" value="mount-point-tertiary" style="rounded=0;whiteSpace=wrap;html=1;glass=0;fontSize=12;align=left;fillColor=#e1d5e7;strokeColor=#9673a6;" parent="1" vertex="1">
          <mxGeometry x="-852" y="1347" width="130" height="20" as="geometry" />
        </mxCell>
        <mxCell id="9Z9RfsvURIoyUKrnc7gD-152" style="edgeStyle=none;rounded=0;orthogonalLoop=1;jettySize=auto;html=1;exitX=1;exitY=0.5;exitDx=0;exitDy=0;entryX=0;entryY=0.75;entryDx=0;entryDy=0;startArrow=oval;startFill=0;endArrow=block;endFill=0;fontSize=12;" parent="1" source="9Z9RfsvURIoyUKrnc7gD-153" target="9Z9RfsvURIoyUKrnc7gD-151" edge="1">
          <mxGeometry relative="1" as="geometry" />
        </mxCell>
        <mxCell id="9Z9RfsvURIoyUKrnc7gD-153" value="content-tertiary&lt;br&gt;&lt;br&gt;- post navigator&lt;br&gt;- tag, category&lt;br&gt;- relate post" style="rounded=0;whiteSpace=wrap;html=1;align=left;verticalAlign=top;fillColor=#e1d5e7;strokeColor=#9673a6;" parent="1" vertex="1">
          <mxGeometry x="-1072" y="1347" width="165" height="90" as="geometry" />
        </mxCell>
        <mxCell id="9Z9RfsvURIoyUKrnc7gD-156" style="edgeStyle=entityRelationEdgeStyle;rounded=0;orthogonalLoop=1;jettySize=auto;html=1;exitX=1;exitY=0.5;exitDx=0;exitDy=0;startArrow=oval;startFill=0;endArrow=block;endFill=0;fontSize=12;" parent="1" source="9Z9RfsvURIoyUKrnc7gD-155" target="9Z9RfsvURIoyUKrnc7gD-150" edge="1">
          <mxGeometry relative="1" as="geometry" />
        </mxCell>
        <mxCell id="9Z9RfsvURIoyUKrnc7gD-155" value="_default/_markup/render-[...]&lt;br&gt;&lt;br&gt;- image&lt;br&gt;- link&lt;br&gt;- heading" style="rounded=0;whiteSpace=wrap;html=1;align=left;verticalAlign=top;strokeColor=#3333FF;" parent="1" vertex="1">
          <mxGeometry x="-1345" y="1222" width="160" height="90" as="geometry" />
        </mxCell>
        <mxCell id="9Z9RfsvURIoyUKrnc7gD-158" style="edgeStyle=entityRelationEdgeStyle;rounded=0;orthogonalLoop=1;jettySize=auto;html=1;exitX=1;exitY=0.5;exitDx=0;exitDy=0;startArrow=oval;startFill=0;endArrow=block;endFill=0;fontSize=12;" parent="1" source="9Z9RfsvURIoyUKrnc7gD-157" target="9Z9RfsvURIoyUKrnc7gD-153" edge="1">
          <mxGeometry relative="1" as="geometry" />
        </mxCell>
        <mxCell id="9Z9RfsvURIoyUKrnc7gD-157" value="partials/relate&lt;br&gt;&lt;br&gt;- list related post" style="rounded=0;whiteSpace=wrap;html=1;align=left;verticalAlign=top;" parent="1" vertex="1">
          <mxGeometry x="-1345" y="1388" width="160" height="70" as="geometry" />
        </mxCell>
        <mxCell id="9Z9RfsvURIoyUKrnc7gD-160" value="about page" style="rounded=0;whiteSpace=wrap;html=1;glass=0;fontSize=12;align=left;fillColor=#647687;strokeColor=#314354;fontColor=#ffffff;verticalAlign=top;fontStyle=1;" parent="1" vertex="1">
          <mxGeometry x="-482" y="172" width="420" height="380" as="geometry" />
        </mxCell>
        <mxCell id="9Z9RfsvURIoyUKrnc7gD-161" value="template page" style="rounded=0;whiteSpace=wrap;html=1;align=left;verticalAlign=top;" parent="1" vertex="1">
          <mxGeometry x="-267" y="242" width="180" height="190" as="geometry" />
        </mxCell>
        <mxCell id="9Z9RfsvURIoyUKrnc7gD-162" style="edgeStyle=none;rounded=0;orthogonalLoop=1;jettySize=auto;html=1;exitX=1;exitY=0.5;exitDx=0;exitDy=0;startArrow=oval;startFill=0;endArrow=block;endFill=0;fontSize=12;" parent="1" source="9Z9RfsvURIoyUKrnc7gD-163" target="9Z9RfsvURIoyUKrnc7gD-164" edge="1">
          <mxGeometry relative="1" as="geometry" />
        </mxCell>
        <mxCell id="9Z9RfsvURIoyUKrnc7gD-163" value="content-primary&lt;br&gt;&lt;br&gt;- introduction&lt;br&gt;- history&lt;br&gt;- factory&lt;br&gt;- people&lt;br&gt;- testimonial" style="rounded=0;whiteSpace=wrap;html=1;align=left;verticalAlign=top;fillColor=#ffe6cc;strokeColor=#d79b00;" parent="1" vertex="1">
          <mxGeometry x="-462" y="222" width="160" height="120" as="geometry" />
        </mxCell>
        <mxCell id="9Z9RfsvURIoyUKrnc7gD-164" value="mount-point-primary" style="whiteSpace=wrap;html=1;rounded=0;align=left;verticalAlign=top;strokeColor=#d79b00;fillColor=#ffe6cc;" parent="1" vertex="1">
          <mxGeometry x="-242" y="282" width="130" height="40" as="geometry" />
        </mxCell>
        <mxCell id="9Z9RfsvURIoyUKrnc7gD-165" value="mount-point-secondary" style="whiteSpace=wrap;html=1;rounded=0;align=left;verticalAlign=top;strokeColor=#82b366;fillColor=#d5e8d4;" parent="1" vertex="1">
          <mxGeometry x="-242" y="342" width="130" height="50" as="geometry" />
        </mxCell>
        <mxCell id="9Z9RfsvURIoyUKrnc7gD-166" style="edgeStyle=none;rounded=0;orthogonalLoop=1;jettySize=auto;html=1;exitX=1;exitY=0.5;exitDx=0;exitDy=0;startArrow=oval;startFill=0;endArrow=block;endFill=0;fontSize=12;" parent="1" source="9Z9RfsvURIoyUKrnc7gD-167" target="9Z9RfsvURIoyUKrnc7gD-165" edge="1">
          <mxGeometry relative="1" as="geometry" />
        </mxCell>
        <mxCell id="9Z9RfsvURIoyUKrnc7gD-167" value="content-secondary&lt;br&gt;&lt;br&gt;- products&lt;br&gt;- services&lt;br&gt;- providers/suppliers&lt;br&gt;- customers" style="rounded=0;whiteSpace=wrap;html=1;align=left;verticalAlign=top;fillColor=#d5e8d4;strokeColor=#82b366;" parent="1" vertex="1">
          <mxGeometry x="-457" y="352" width="150" height="110" as="geometry" />
        </mxCell>
        <mxCell id="9Z9RfsvURIoyUKrnc7gD-168" style="edgeStyle=none;rounded=0;orthogonalLoop=1;jettySize=auto;html=1;exitX=1;exitY=0.5;exitDx=0;exitDy=0;startArrow=oval;startFill=0;endArrow=block;endFill=0;fontSize=12;" parent="1" source="9Z9RfsvURIoyUKrnc7gD-169" target="9Z9RfsvURIoyUKrnc7gD-170" edge="1">
          <mxGeometry relative="1" as="geometry" />
        </mxCell>
        <mxCell id="9Z9RfsvURIoyUKrnc7gD-169" value="content-tertiary&lt;br&gt;&lt;br&gt;- offers&lt;br&gt;- seller list" style="rounded=0;whiteSpace=wrap;html=1;align=left;verticalAlign=top;fillColor=#e1d5e7;strokeColor=#9673a6;" parent="1" vertex="1">
          <mxGeometry x="-457" y="472" width="165" height="75" as="geometry" />
        </mxCell>
        <mxCell id="9Z9RfsvURIoyUKrnc7gD-170" value="mount-point-tertiary" style="rounded=0;whiteSpace=wrap;html=1;glass=0;fontSize=12;align=left;fillColor=#e1d5e7;strokeColor=#9673a6;" parent="1" vertex="1">
          <mxGeometry x="-242" y="402" width="130" height="20" as="geometry" />
        </mxCell>
        <mxCell id="9Z9RfsvURIoyUKrnc7gD-171" value="contact page" style="rounded=0;whiteSpace=wrap;html=1;glass=0;fontSize=12;align=left;fillColor=#647687;strokeColor=#314354;fontColor=#ffffff;verticalAlign=top;fontStyle=1;" parent="1" vertex="1">
          <mxGeometry x="-472" y="647" width="420" height="410" as="geometry" />
        </mxCell>
        <mxCell id="9Z9RfsvURIoyUKrnc7gD-172" value="template page" style="rounded=0;whiteSpace=wrap;html=1;align=left;verticalAlign=top;" parent="1" vertex="1">
          <mxGeometry x="-257" y="717" width="180" height="190" as="geometry" />
        </mxCell>
        <mxCell id="9Z9RfsvURIoyUKrnc7gD-173" style="edgeStyle=none;rounded=0;orthogonalLoop=1;jettySize=auto;html=1;exitX=1;exitY=0.5;exitDx=0;exitDy=0;startArrow=oval;startFill=0;endArrow=block;endFill=0;fontSize=12;" parent="1" source="9Z9RfsvURIoyUKrnc7gD-174" target="9Z9RfsvURIoyUKrnc7gD-175" edge="1">
          <mxGeometry relative="1" as="geometry" />
        </mxCell>
        <mxCell id="9Z9RfsvURIoyUKrnc7gD-174" value="content-primary&lt;br&gt;&lt;br&gt;- contact form&lt;br&gt;- map&lt;br&gt;- phone" style="rounded=0;whiteSpace=wrap;html=1;align=left;verticalAlign=top;fillColor=#ffe6cc;strokeColor=#d79b00;" parent="1" vertex="1">
          <mxGeometry x="-452" y="697" width="160" height="120" as="geometry" />
        </mxCell>
        <mxCell id="9Z9RfsvURIoyUKrnc7gD-175" value="mount-point-primary" style="whiteSpace=wrap;html=1;rounded=0;align=left;verticalAlign=top;strokeColor=#d79b00;fillColor=#ffe6cc;" parent="1" vertex="1">
          <mxGeometry x="-232" y="757" width="130" height="40" as="geometry" />
        </mxCell>
        <mxCell id="9Z9RfsvURIoyUKrnc7gD-176" value="mount-point-secondary" style="whiteSpace=wrap;html=1;rounded=0;align=left;verticalAlign=top;strokeColor=#82b366;fillColor=#d5e8d4;" parent="1" vertex="1">
          <mxGeometry x="-232" y="817" width="130" height="50" as="geometry" />
        </mxCell>
        <mxCell id="9Z9RfsvURIoyUKrnc7gD-177" style="edgeStyle=none;rounded=0;orthogonalLoop=1;jettySize=auto;html=1;exitX=1;exitY=0.5;exitDx=0;exitDy=0;startArrow=oval;startFill=0;endArrow=block;endFill=0;fontSize=12;" parent="1" source="9Z9RfsvURIoyUKrnc7gD-178" target="9Z9RfsvURIoyUKrnc7gD-176" edge="1">
          <mxGeometry relative="1" as="geometry" />
        </mxCell>
        <mxCell id="9Z9RfsvURIoyUKrnc7gD-178" value="content-secondary&lt;br&gt;&lt;br&gt;- other contact: zalo, skype, viblo, messenger...&lt;br&gt;- social network: facebook, tweeter, instagram..." style="rounded=0;whiteSpace=wrap;html=1;align=left;verticalAlign=top;fillColor=#d5e8d4;strokeColor=#82b366;" parent="1" vertex="1">
          <mxGeometry x="-447" y="827" width="150" height="110" as="geometry" />
        </mxCell>
        <mxCell id="9Z9RfsvURIoyUKrnc7gD-179" style="edgeStyle=none;rounded=0;orthogonalLoop=1;jettySize=auto;html=1;exitX=1;exitY=0.5;exitDx=0;exitDy=0;startArrow=oval;startFill=0;endArrow=block;endFill=0;fontSize=12;" parent="1" source="9Z9RfsvURIoyUKrnc7gD-180" target="9Z9RfsvURIoyUKrnc7gD-181" edge="1">
          <mxGeometry relative="1" as="geometry" />
        </mxCell>
        <mxCell id="9Z9RfsvURIoyUKrnc7gD-180" value="content-tertiary&lt;br&gt;&lt;br&gt;- ads" style="rounded=0;whiteSpace=wrap;html=1;align=left;verticalAlign=top;fillColor=#e1d5e7;strokeColor=#9673a6;" parent="1" vertex="1">
          <mxGeometry x="-447" y="947" width="165" height="75" as="geometry" />
        </mxCell>
        <mxCell id="9Z9RfsvURIoyUKrnc7gD-181" value="mount-point-tertiary" style="rounded=0;whiteSpace=wrap;html=1;glass=0;fontSize=12;align=left;fillColor=#e1d5e7;strokeColor=#9673a6;" parent="1" vertex="1">
          <mxGeometry x="-232" y="877" width="130" height="20" as="geometry" />
        </mxCell>
        <mxCell id="9Z9RfsvURIoyUKrnc7gD-214" style="edgeStyle=entityRelationEdgeStyle;rounded=0;orthogonalLoop=1;jettySize=auto;html=1;exitX=1;exitY=0.5;exitDx=0;exitDy=0;entryX=0;entryY=0.5;entryDx=0;entryDy=0;startArrow=oval;startFill=0;endArrow=block;endFill=0;fontSize=12;" parent="1" source="9Z9RfsvURIoyUKrnc7gD-197" target="9Z9RfsvURIoyUKrnc7gD-157" edge="1">
          <mxGeometry relative="1" as="geometry">
            <mxPoint x="-1425" y="1307" as="sourcePoint" />
          </mxGeometry>
        </mxCell>
        <mxCell id="9Z9RfsvURIoyUKrnc7gD-216" style="edgeStyle=entityRelationEdgeStyle;rounded=0;orthogonalLoop=1;jettySize=auto;html=1;exitX=1;exitY=0.5;exitDx=0;exitDy=0;entryX=0;entryY=0.5;entryDx=0;entryDy=0;startArrow=oval;startFill=0;endArrow=block;endFill=0;fontSize=12;" parent="1" source="9Z9RfsvURIoyUKrnc7gD-215" target="9Z9RfsvURIoyUKrnc7gD-146" edge="1">
          <mxGeometry relative="1" as="geometry" />
        </mxCell>
        <mxCell id="9Z9RfsvURIoyUKrnc7gD-215" value="partials/section-cover&lt;br&gt;" style="rounded=0;whiteSpace=wrap;html=1;align=left;verticalAlign=top;" parent="1" vertex="1">
          <mxGeometry x="-1349" y="1087.14" width="160" height="44" as="geometry" />
        </mxCell>
        <mxCell id="9Z9RfsvURIoyUKrnc7gD-196" value="" style="shape=table;html=1;whiteSpace=wrap;startSize=0;container=1;collapsible=0;childLayout=tableLayout;" parent="1" vertex="1">
          <mxGeometry x="-1987" y="927" width="204" height="160.14285714285734" as="geometry" />
        </mxCell>
        <mxCell id="9Z9RfsvURIoyUKrnc7gD-197" value="" style="shape=partialRectangle;html=1;whiteSpace=wrap;collapsible=0;dropTarget=0;pointerEvents=0;fillColor=none;top=0;left=0;bottom=0;right=0;points=[[0,0.5],[1,0.5]];portConstraint=eastwest;" parent="9Z9RfsvURIoyUKrnc7gD-196" vertex="1">
          <mxGeometry width="204" height="40" as="geometry" />
        </mxCell>
        <mxCell id="9Z9RfsvURIoyUKrnc7gD-198" value="post (card)" style="shape=partialRectangle;html=1;whiteSpace=wrap;connectable=0;overflow=hidden;fillColor=#dae8fc;top=0;left=0;bottom=0;right=0;perimeterSpacing=0;strokeWidth=2;shadow=1;" parent="9Z9RfsvURIoyUKrnc7gD-197" vertex="1">
          <mxGeometry width="204" height="40" as="geometry" />
        </mxCell>
        <mxCell id="9Z9RfsvURIoyUKrnc7gD-199" value="" style="shape=partialRectangle;html=1;whiteSpace=wrap;collapsible=0;dropTarget=0;pointerEvents=0;fillColor=none;top=0;left=0;bottom=0;right=0;points=[[0,0.5],[1,0.5]];portConstraint=eastwest;" parent="9Z9RfsvURIoyUKrnc7gD-196" vertex="1">
          <mxGeometry y="40" width="204" height="40" as="geometry" />
        </mxCell>
        <mxCell id="9Z9RfsvURIoyUKrnc7gD-200" value="cover image" style="shape=partialRectangle;html=1;whiteSpace=wrap;connectable=0;overflow=hidden;fillColor=none;top=0;left=0;bottom=0;right=0;" parent="9Z9RfsvURIoyUKrnc7gD-199" vertex="1">
          <mxGeometry width="204" height="40" as="geometry" />
        </mxCell>
        <mxCell id="9Z9RfsvURIoyUKrnc7gD-201" value="" style="shape=partialRectangle;html=1;whiteSpace=wrap;collapsible=0;dropTarget=0;pointerEvents=0;fillColor=none;top=0;left=0;bottom=0;right=0;points=[[0,0.5],[1,0.5]];portConstraint=eastwest;" parent="9Z9RfsvURIoyUKrnc7gD-196" vertex="1">
          <mxGeometry y="80" width="204" height="40" as="geometry" />
        </mxCell>
        <mxCell id="9Z9RfsvURIoyUKrnc7gD-202" value="title (link)" style="shape=partialRectangle;html=1;whiteSpace=wrap;connectable=0;overflow=hidden;fillColor=none;top=0;left=0;bottom=0;right=0;" parent="9Z9RfsvURIoyUKrnc7gD-201" vertex="1">
          <mxGeometry width="204" height="40" as="geometry" />
        </mxCell>
        <mxCell id="9Z9RfsvURIoyUKrnc7gD-203" value="" style="shape=partialRectangle;html=1;whiteSpace=wrap;collapsible=0;dropTarget=0;pointerEvents=0;fillColor=none;top=0;left=0;bottom=0;right=0;points=[[0,0.5],[1,0.5]];portConstraint=eastwest;" parent="9Z9RfsvURIoyUKrnc7gD-196" vertex="1">
          <mxGeometry y="120" width="204" height="40" as="geometry" />
        </mxCell>
        <mxCell id="9Z9RfsvURIoyUKrnc7gD-204" value="summary" style="shape=partialRectangle;html=1;whiteSpace=wrap;connectable=0;overflow=hidden;fillColor=none;top=0;left=0;bottom=0;right=0;" parent="9Z9RfsvURIoyUKrnc7gD-203" vertex="1">
          <mxGeometry width="204" height="40" as="geometry" />
        </mxCell>
      </root>
    </mxGraphModel>
  </diagram>
</mxfile>
